<?xml version="1.0" encoding="UTF-8" standalone="no"?> <svg xmlns="http://www.w3.org/2000/svg" viewBox="0 0 512 512"><title>Currency_exchange</title><g id="Currency_exchange"><path d="M176.3911,409.9019H151.5742a11.49,11.49,0,0,1-11.4761-11.4761V346.5747a17.0951,17.0951,0,0,0-29.1865-12.0884L70.583,374.8149A17.0956,17.0956,0,0,0,94.76,398.9917l11.1421-11.1328v10.5669a45.7186,45.7186,0,0,0,45.6723,45.6723h24.8169a17.0981,17.0981,0,1,0,0-34.1962Z"/><path d="M335.6089,102.0981h24.8169a11.49,11.49,0,0,1,11.4761,11.4761v51.8511a17.0956,17.0956,0,0,0,29.1865,12.0884l40.3286-40.3286A17.0956,17.0956,0,1,0,417.24,113.0083l-11.1421,11.1328V113.5742a45.7186,45.7186,0,0,0-45.6723-45.6723H335.6089a17.0981,17.0981,0,1,0,0,34.1962Z"/><path d="M336.8706,305.6709h37.898a17.0982,17.0982,0,0,0,0-34.1963h-37.898a69.9747,69.9747,0,0,0-67.6655,52.9273h-6.4326a17.0981,17.0981,0,1,0,0,34.1962h6.4326a69.9747,69.9747,0,0,0,67.6655,52.9273h37.898a17.0982,17.0982,0,0,0,0-34.1963h-37.898a35.7164,35.7164,0,0,1-31.2867-18.731h36.8624a17.0981,17.0981,0,1,0,0-34.1962H305.5839A35.7164,35.7164,0,0,1,336.8706,305.6709Z"/><path d="M207.9155,153.4019H197.0981V137.5747h35.8291a17.0982,17.0982,0,1,0,0-34.1963H197.0981v-2.9131a17.0981,17.0981,0,1,0-34.1962,0v2.9131H152.0845a42.11,42.11,0,1,0,0,84.22h10.8174v15.8365H127.0728a17.0982,17.0982,0,1,0,0,34.1963h35.8291v2.913a17.0981,17.0981,0,1,0,34.1962,0v-2.913h10.8174a42.1145,42.1145,0,0,0,0-84.229Zm-45.0136,0H152.0845a7.9136,7.9136,0,0,1,0-15.8272h10.8174Zm45.0136,50.0327H197.0981V187.5981h10.8174a7.9183,7.9183,0,0,1,0,15.8365Z"/><path d="M332,200.9019a141.39,141.39,0,0,0-15.4062.8883,137.7053,137.7053,0,0,0,4.0043-31.29c0-77.5308-63.0673-140.5981-140.5981-140.5981S39.4019,92.9692,39.4019,170.5,102.4692,311.0981,180,311.0981a132.4762,132.4762,0,0,0,15.0757-1.0529A140.1467,140.1467,0,0,0,191.4019,341.5c0,77.5308,63.0673,140.5981,140.5981,140.5981S472.5981,419.0308,472.5981,341.5,409.5308,200.9019,332,200.9019Zm-152,76A106.4019,106.4019,0,1,1,286.4019,170.5a105.21,105.21,0,0,1-8.4447,41.2355,141.3642,141.3642,0,0,0-68.3323,60.7782A105.254,105.254,0,0,1,180,276.9019Zm152,171A106.4019,106.4019,0,1,1,438.4019,341.5,106.5228,106.5228,0,0,1,332,447.9019Z"/></g></svg>